# xmcd
#
# Track frame offsets:
# 150
# 14142
# 26122
# 37028
# 47125
# 67118
# 76392
# 94134
# 114002
# 132216
#
# Disc length: 2115 seconds
#
#
# Revision: 0
# Processed by: cddbd v1.5.1PL2 Copyright (c) Steve Scherf et al.
# Submitted via: FreeRIP 2.943 
#
DISCID=8608410a
DTITLE=miyavi - -gagaku-
DYEAR=2002
DGENRE=Rock
TTITLE0=Hatachi Kinenbi (Peter Pan Syndrome)
TTITLE1=Coin Rockers Baby
TTITLE2=Kusare Sotomichi he -Son of bitch-
TTITLE3=Night in girl
TTITLE4=Girls,be ambitious
TTITLE5=Oresama Shikou
TTITLE6=Gariben Rock
TTITLE7=Onpu no Tegami
TTITLE8=Shokubutsu Ningen m no theme
TTITLE9=Dear From Xxx (Acoustic Version)
EXTD=
EXTT0=
EXTT1=
EXTT2=
EXTT3=
EXTT4=
EXTT5=
EXTT6=
EXTT7=
EXTT8=
EXTT9=
PLAYORDER=
